<svg width="459" height="672" viewBox="0 0 459 672" fill="none" xmlns="http://www.w3.org/2000/svg">
<path d="M235.678 92C161.739 92.0001 52.8349 141.086 0 166.5V608C59.4585 601.12 190.178 603.61 235.678 596.627C289.713 588.334 440.393 527.125 386.788 439.51C333.183 351.895 417.75 287.448 422.833 211.206C427.916 134.965 315.724 91.9999 235.678 92Z" fill="#FF6FFC"/>
<path d="M240 159C205.6 35 66 1.66667 0 0.5V671.5C24.6667 640.333 102.959 564.378 157 531C208 499.5 408 501.5 447.5 430.5C487 359.5 410 334.5 386.5 332.5C363 330.5 283 314 240 159Z" fill="#3F5FFF" fill-opacity="0.7"/>
</svg>
