<svg width="312" height="283" viewBox="0 0 312 283" fill="none" xmlns="http://www.w3.org/2000/svg">
<path d="M309.984 129.378C309.984 129.378 271.727 85.4556 226.525 69.5256" stroke="#30242A" stroke-width="4" stroke-linecap="round" stroke-linejoin="round"/>
<path d="M189.987 86.6837C188.598 83.3281 193.233 78.0644 200.953 73.6195C190.499 71.0169 183.071 66.1699 183.817 62.0979C184.562 58.0258 193.218 56.1104 203.921 57.3678C198.292 50.4958 195.813 43.9308 198.299 41.2843C201.465 37.8995 211.509 42.1689 220.728 50.7882C228.77 58.3182 233.522 66.6963 232.513 70.9584C231.95 75.3009 224.544 81.4565 214.368 85.6675C202.664 90.5218 191.763 90.9751 189.987 86.6837Z" fill="#92278F"/>
<path d="M232.893 84.6002C240.266 84.6002 246.242 78.6235 246.242 71.2509C246.242 63.8783 240.266 57.9016 232.893 57.9016C225.521 57.9016 219.544 63.8783 219.544 71.2509C219.544 78.6235 225.521 84.6002 232.893 84.6002Z" fill="#30242A"/>
<path d="M261.019 88.4436C264.687 87.0817 263.02 73.4801 257.296 58.0634C251.572 42.6468 243.958 31.2531 240.29 32.6149C236.622 33.9768 238.29 47.5784 244.014 62.9951C249.738 78.4117 257.352 89.8054 261.019 88.4436Z" fill="#30242A"/>
<path d="M260.366 91.1212C260.366 91.1212 266.039 106.708 263.203 123.003" stroke="#30242A" stroke-width="4" stroke-linecap="round" stroke-linejoin="round"/>
<path d="M156.913 29.039C144.821 42.6442 131.969 45.6489 131.969 45.6489C123.657 36.5836 108.575 36.5836 106.272 49.4285C103.765 63.6624 121.369 67.5809 121.369 67.5809C121.369 67.5809 125.806 85.9454 119 95.0179C112.991 103.06 105.271 104.383 89.4502 106.152C110.066 140.987 131.121 138.239 138.132 138.239C154.947 138.239 159.684 118.726 161.007 108.667C157.179 107.332 153.272 106.231 149.31 105.37L147.044 91.772C147.044 91.772 157.622 95.5443 166.695 90.2586C175.767 84.973 178.034 75.1402 175.007 60.029C173.216 51.0734 173.282 39.9977 171.747 30.0991C165.759 31.1152 156.913 29.039 156.913 29.039Z" fill="#A15842"/>
<path d="M282.686 104.938C279.477 92.0936 254.35 85.1265 254.35 85.1265C254.35 85.1265 255.856 56.2932 249.386 55.372C244.429 54.641 239.465 66.7109 235.218 90.0905C230.466 116.219 233.09 164.477 233.09 164.477C233.09 164.477 227.834 159.703 220.377 153.057C219.632 154.564 218.489 155.837 217.071 156.739C215.653 157.641 214.015 158.138 212.335 158.175C213.396 159.519 214.06 161.132 214.253 162.833C214.447 164.534 214.162 166.255 213.43 167.802C212.698 169.35 211.549 170.663 210.112 171.593C208.675 172.523 207.007 173.033 205.295 173.067C206.356 174.411 207.02 176.024 207.213 177.725C207.407 179.426 207.121 181.147 206.39 182.694C205.658 184.242 204.509 185.555 203.072 186.485C201.635 187.415 199.967 187.925 198.255 187.959C199.368 189.369 200.043 191.075 200.197 192.866C200.351 194.656 199.977 196.452 199.122 198.032C198.266 199.612 196.967 200.907 195.383 201.757C193.8 202.607 192.003 202.974 190.213 202.814C205.734 212.917 226.832 224.702 240.891 224.702C314.568 224.673 284.813 113.441 282.686 104.938Z" fill="#A15842"/>
<path d="M199.322 197.557C200.053 196.01 200.338 194.289 200.146 192.589C199.954 190.888 199.291 189.275 198.233 187.929C199.945 187.896 201.613 187.385 203.05 186.455C204.487 185.525 205.636 184.213 206.368 182.665C207.1 181.117 207.385 179.396 207.191 177.695C206.998 175.995 206.334 174.381 205.273 173.037C206.985 173.004 208.653 172.493 210.09 171.563C211.527 170.633 212.676 169.321 213.408 167.773C214.14 166.225 214.425 164.504 214.231 162.804C214.038 161.103 213.374 159.489 212.314 158.146C213.994 158.109 215.631 157.612 217.049 156.71C218.467 155.808 219.61 154.534 220.355 153.028C207.503 141.58 188.122 124.604 177.807 116.979C172.814 113.287 166.454 110.553 160.993 108.667C159.706 118.756 154.998 138.239 138.183 138.239C131.202 138.239 110.118 140.987 89.5014 106.152L82.8779 106.883C60.0686 109.42 49.6874 121.695 43.5757 136.36C39.7961 145.432 36.7694 162.057 36.7694 162.057C34.4245 177.298 33.2174 192.693 33.158 208.114L62.8174 235.566L142.445 237.532C148.82 228.131 160.517 210.768 164.377 204.108C169.334 195.606 170.043 188.521 170.043 188.521C170.043 188.521 178.553 195.174 190.213 202.77C192.082 202.934 193.956 202.522 195.584 201.591C197.213 200.659 198.517 199.252 199.322 197.557Z" fill="#4756DF"/>
<path d="M165.233 12.4072C156.168 1.0756 131.224 -6.48366 111.572 7.87452C91.9213 22.2327 93.4346 45.6634 94.1876 54.736C94.1876 54.736 73.0305 47.9298 57.912 63.8012C53.5366 68.3388 50.3501 73.8871 48.636 79.953C46.9218 86.0189 46.733 92.4144 48.0865 98.5709C48.0865 98.5709 20.2474 97.7886 14.8302 123.515C11.7524 138.136 17.4986 147.867 23.8735 153.891C27.6124 157.399 31.9803 160.17 36.7476 162.057C36.7476 162.057 39.7742 145.432 43.5539 136.36C49.6656 121.695 60.0468 109.42 82.8561 106.883L89.4796 106.152C105.3 104.383 113.02 103.038 119.029 95.0179C125.828 85.9453 121.369 67.5809 121.369 67.5809C121.369 67.5809 103.743 63.6624 106.25 49.4431C108.524 36.5982 123.635 36.5982 131.947 45.6634C131.947 45.6634 144.8 42.6441 156.891 29.039C156.891 29.039 165.737 31.1152 171.769 30.099C170.738 23.2855 168.925 17.0348 165.233 12.4072Z" fill="#30242A"/>
<path d="M284.258 115.034C282.116 114.048 280.837 111.562 281.202 106.81C281.202 106.81 276.772 112.366 272.056 109.895C267.341 107.424 269.227 102.102 269.227 102.102C269.227 102.102 264.972 104.938 261.434 101.371C258.225 98.1614 260.703 92.8685 260.703 92.8685C260.703 92.8685 255.995 94.7912 254.328 91.4502C252.23 87.2685 254.781 82.8894 257.545 79.5338" stroke="#30242A" stroke-width="8" stroke-linecap="round" stroke-linejoin="round"/>
<path d="M46.7413 99.1849C47.5423 102.973 48.9864 106.595 51.0108 109.895" stroke="black" stroke-width="4" stroke-miterlimit="10" stroke-linecap="round"/>
<path d="M231.672 165.391L233.449 187.476" stroke="#30242A" stroke-width="4" stroke-linecap="round" stroke-linejoin="round"/>
<path d="M167.557 164.082C172.185 172.416 172.127 182.417 171.527 188.346" stroke="#30242A" stroke-width="4" stroke-linecap="round" stroke-linejoin="round"/>
<path d="M125.755 187.476L103.085 188.185" stroke="#30242A" stroke-width="4" stroke-linecap="round" stroke-linejoin="round"/>
<path d="M146.656 93.1683C143.488 91.9245 140.397 90.4915 137.401 88.8769" stroke="#30242A" stroke-width="4" stroke-linecap="round" stroke-linejoin="round"/>
<path d="M152.322 114.15L151.086 106.32" stroke="#30242A" stroke-width="4" stroke-linecap="round" stroke-linejoin="round"/>
<path d="M92.6594 55.0212L94.2312 68.0927" stroke="black" stroke-width="4" stroke-miterlimit="10" stroke-linecap="round"/>
<path d="M167.558 70.5783C165.957 71.6164 160.649 71.96 158.105 67.3323" stroke="#30242A" stroke-width="4" stroke-linecap="round" stroke-linejoin="round"/>
<path d="M125.046 55.6937L117.962 52.1553" stroke="#30242A" stroke-width="4" stroke-linecap="round" stroke-linejoin="round"/>
<path d="M157.754 52.5574C156.621 54.0999 151.277 57.09 147.256 53.6759" stroke="#30242A" stroke-width="4" stroke-linecap="round" stroke-linejoin="round"/>
<path d="M174.971 50.3277C174.125 50.5075 173.251 50.5187 172.401 50.3607C171.55 50.2026 170.739 49.8784 170.014 49.4066" stroke="#30242A" stroke-width="4" stroke-linecap="round" stroke-linejoin="round"/>
<path d="M165.386 52.9595C166.198 54.7945 166.98 56.8196 166.812 57.5945C166.562 58.537 166 59.3669 165.218 59.9485" stroke="#30242A" stroke-width="4" stroke-linecap="round" stroke-linejoin="round"/>
<path d="M260.016 66.6816C260.016 66.6816 264.973 63.8451 269.228 65.2633C275.807 67.4565 274.842 73.5829 274.842 73.5829C274.842 73.5829 284.068 70.2565 285.859 80.009C285.859 80.009 294.179 81.8732 292.307 90.1928C292.307 90.1928 299.041 90.551 297.703 99.375C296.365 108.199 290.48 115.532 286.941 115.532C283.286 115.532 280.705 113.287 281.203 106.759C281.203 106.759 276.772 112.315 272.057 109.844C267.341 107.373 269.228 102.051 269.228 102.051C269.228 102.051 264.973 104.887 261.434 101.32C258.225 98.1102 260.703 92.8173 260.703 92.8173C260.703 92.8173 255.995 94.74 254.328 91.399C250.783 84.315 260.535 76.6972 262.122 74.4017L260.016 66.6816Z" fill="#A15842"/>
<path d="M257.91 95.3981C262.779 90.9313 271.069 82.5021 275.002 73.6561" stroke="#30242A" stroke-width="4" stroke-linecap="round" stroke-linejoin="round"/>
<path d="M266.851 105.596C274.943 98.7155 281.547 90.258 286.261 80.7401" stroke="#30242A" stroke-width="4" stroke-linecap="round" stroke-linejoin="round"/>
<path d="M279.374 110.845C281.567 108.17 289.236 98.5562 293.037 90.9458" stroke="#30242A" stroke-width="4" stroke-linecap="round" stroke-linejoin="round"/>
<path d="M278 273.559H155.298L183.188 185.444C184.013 182.849 185.642 180.585 187.84 178.979C190.037 177.373 192.689 176.508 195.411 176.51H299.099C301.113 176.509 303.1 176.983 304.897 177.894C306.694 178.805 308.251 180.126 309.442 181.751C310.633 183.376 311.423 185.259 311.75 187.247C312.077 189.235 311.93 191.272 311.322 193.193L288.257 266.059C287.564 268.235 286.197 270.135 284.353 271.483C282.509 272.831 280.284 273.559 278 273.559Z" fill="#30242A"/>
<path d="M84.0845 263.639C83.7225 264.78 83.6346 265.991 83.8281 267.173C84.0217 268.354 84.491 269.474 85.1982 270.44C85.9053 271.406 86.8303 272.193 87.8982 272.734C88.966 273.276 90.1465 273.559 91.344 273.559H278C280.283 273.554 282.505 272.823 284.344 271.472C286.184 270.121 287.547 268.22 288.235 266.044L288.966 263.639H84.0845Z" fill="#30242A"/>
<path d="M259.204 217.45C256.353 213.546 243.391 223.854 242.441 224.709C241.944 223.854 235.203 213.546 230.254 217.45C225.963 220.835 235.371 235.946 237.908 239.799C238.013 239.916 238.142 240.01 238.285 240.074C238.429 240.138 238.584 240.171 238.742 240.171C238.899 240.171 239.055 240.138 239.198 240.074C239.342 240.01 239.47 239.916 239.575 239.799C244.188 235.909 261.683 220.798 259.204 217.45Z" fill="#FFBE21"/>
<path d="M247.36 214.691C248.39 211.383 248.347 208.428 247.264 208.091C246.181 207.754 244.468 210.161 243.438 213.469C242.407 216.776 242.45 219.731 243.534 220.068C244.617 220.406 246.33 217.998 247.36 214.691Z" fill="#FFBE21"/>
<path d="M13.7775 193.668C15.3701 194.282 17.1019 194.442 18.7799 194.129C20.4579 193.817 22.0163 193.045 23.2814 191.899C23.4314 193.606 24.0558 195.237 25.084 196.608C26.1122 197.979 27.5033 199.035 29.1002 199.658C30.697 200.28 32.436 200.443 34.1207 200.128C35.8053 199.814 37.3686 199.035 38.6338 197.879C38.7876 199.584 39.4144 201.213 40.4436 202.581C41.4727 203.949 42.8633 205.003 44.4589 205.624C46.0545 206.244 47.7916 206.408 49.4748 206.095C51.158 205.781 52.7205 205.005 53.9862 203.852C54.1034 205.198 54.5162 206.502 55.1951 207.67C55.8741 208.838 56.8025 209.842 57.9142 210.61C59.0258 211.378 60.2932 211.892 61.6261 212.113C62.9589 212.335 64.3243 212.26 65.6248 211.894L76.6786 182.205C80.9359 170.809 82.954 158.698 82.6222 146.536L81.5036 107.059C81.5036 107.059 55.9967 109.179 41.1194 127.602C33.4871 137.054 18.5075 162.028 8.90857 189.179C9.91727 191.229 11.653 192.829 13.7775 193.668Z" fill="#4756DF"/>
<path d="M59.8273 211.601C58.2262 210.985 56.8297 209.932 55.7961 208.562C54.7625 207.193 54.1329 205.561 53.9787 203.852C52.713 205.005 51.1506 205.782 49.4674 206.095C47.7841 206.408 46.047 206.245 44.4514 205.624C42.8558 205.003 41.4652 203.949 40.4361 202.581C39.4069 201.213 38.7802 199.584 38.6263 197.879C37.3611 199.035 35.7978 199.814 34.1132 200.128C32.4285 200.443 30.6895 200.28 29.0927 199.658C27.4958 199.036 26.1047 197.979 25.0765 196.608C24.0483 195.237 23.4239 193.606 23.2739 191.899C22.2215 192.858 20.961 193.559 19.5917 193.947C18.2223 194.336 16.7815 194.401 15.3825 194.138C13.9836 193.875 12.6648 193.291 11.53 192.432C10.3951 191.573 9.47517 190.462 8.84258 189.187C0.523021 212.72 -3.76104 237.898 4.29533 256.021C21.6363 295.053 73.681 281.316 85.963 277.705C98.2449 274.093 122.107 261.804 138.008 263.975C153.908 266.146 171.973 274.093 174.868 263.975C174.868 263.975 184.599 263.727 181.536 254.471C181.536 254.471 186.426 253.864 187.15 250.253C188.612 243.023 171.249 236.524 171.249 236.524C171.249 236.524 184.986 238.717 187.874 235.792C191.529 232.137 187.976 226.237 165.54 220.798C140.895 214.833 108.37 218.444 59.9443 227.115L65.61 211.887C63.7027 212.422 61.6727 212.322 59.8273 211.601Z" fill="#A15842"/>
<path d="M76.8687 178.265L60.6902 225.492" stroke="#30242A" stroke-width="4" stroke-linecap="round" stroke-linejoin="round"/>
<path d="M175.614 237.042C167.762 234.06 154.691 229.483 144.544 227.831" stroke="#30242A" stroke-width="4" stroke-linecap="round" stroke-linejoin="round"/>
<path d="M181.741 254.091C171.652 249.551 152.381 241.312 142.014 239.762" stroke="#30242A" stroke-width="4" stroke-linecap="round" stroke-linejoin="round"/>
<path d="M60.0611 225.594C54.622 226.471 46.0831 227.926 37.5515 229.629" stroke="#30242A" stroke-width="4" stroke-linecap="round" stroke-linejoin="round"/>
<path d="M174.569 264.969C167.002 261.117 151.058 253.455 139.85 251.32" stroke="#30242A" stroke-width="4" stroke-linecap="round" stroke-linejoin="round"/>
</svg>
