<svg width="942" height="771" viewBox="0 0 942 771" fill="none" xmlns="http://www.w3.org/2000/svg">
<path d="M222.886 299.765C31.6748 238.836 87 96.5 87 -1.5H941.997V707.533C907.443 734.651 834.831 668.58 748.197 654.281C661.564 639.982 640.531 739.089 510.33 766.208C380.129 793.327 325.545 675.976 339.566 594.127C357.879 487.229 377.625 349.072 222.886 299.765Z" fill="#3F5FFF" fill-opacity="0.8"/>
<path d="M200.993 239.208C68.039 234.261 -18.9819 77.0035 3.54747 -1.00696H942.148V553.152C942.148 553.152 915.226 576.716 890.417 613.357C877.397 632.586 844.864 722.818 763.722 722.818C679.592 722.818 661.914 574.827 595.462 572.432C533.134 570.185 529.332 611.426 430.145 581.217C309.019 544.327 309.895 448.214 341.069 352.523C347.922 331.487 367.186 245.392 200.993 239.208Z" fill="#682C92" fill-opacity="0.85"/>
</svg>
