<svg width="569" height="521" viewBox="0 0 569 521" fill="none" xmlns="http://www.w3.org/2000/svg">
<path d="M277.596 245.88C283.076 245.88 288.331 248.06 292.206 251.939C296.081 255.819 298.258 261.08 298.258 266.566V462.755C298.258 468.242 296.081 473.503 292.206 477.383C288.331 481.262 283.076 483.441 277.596 483.441H23.3419C17.8618 483.441 12.6061 481.262 8.73111 477.383C4.85609 473.503 2.67912 468.242 2.67912 462.755V266.566C2.67912 261.08 4.85609 255.819 8.73111 251.939C12.6061 248.06 17.8618 245.88 23.3419 245.88H277.596ZM277.596 244.028H23.3419C17.373 244.034 11.6502 246.411 7.42954 250.636C3.20885 254.862 0.83498 260.591 0.828857 266.566V462.755C0.83498 468.731 3.20885 474.46 7.42954 478.686C11.6502 482.911 17.373 485.288 23.3419 485.294H277.596C283.565 485.288 289.287 482.911 293.508 478.686C297.729 474.46 300.102 468.731 300.109 462.755V266.566C300.102 260.591 297.729 254.862 293.508 250.636C289.287 246.411 283.565 244.034 277.596 244.028Z" fill="white"/>
<path d="M277.603 245.87H23.3345C11.9221 245.87 2.67053 255.132 2.67053 266.558V462.764C2.67053 474.19 11.9221 483.452 23.3345 483.452H277.603C289.015 483.452 298.267 474.19 298.267 462.764V266.558C298.267 255.132 289.015 245.87 277.603 245.87Z" fill="#F5EBDD"/>
<path d="M2.67053 290.071H299.188" stroke="white" stroke-width="4" stroke-miterlimit="10"/>
<path d="M24.3108 275.337C28.6337 275.337 32.1382 271.833 32.1382 267.51C32.1382 263.187 28.6337 259.683 24.3108 259.683C19.9879 259.683 16.4835 263.187 16.4835 267.51C16.4835 271.833 19.9879 275.337 24.3108 275.337Z" fill="white"/>
<path d="M48.2532 275.337C52.5761 275.337 56.0805 271.833 56.0805 267.51C56.0805 263.187 52.5761 259.683 48.2532 259.683C43.9303 259.683 40.4259 263.187 40.4259 267.51C40.4259 271.833 43.9303 275.337 48.2532 275.337Z" fill="white"/>
<path d="M72.1956 275.337C76.5185 275.337 80.0229 271.833 80.0229 267.51C80.0229 263.187 76.5185 259.683 72.1956 259.683C67.8727 259.683 64.3683 263.187 64.3683 267.51C64.3683 271.833 67.8727 275.337 72.1956 275.337Z" fill="white"/>
<path d="M94.2705 351.331C94.2705 351.331 104.602 351.901 112.307 347.568C119.605 343.462 120.782 337.031 118.236 324.304C118.236 324.304 122.798 321.567 122.342 318.831C122.045 317.029 116.868 315.181 116.868 315.181C116.22 311.706 115.399 306.451 114.067 301.077C110.735 301.732 107.35 302.081 103.955 302.117C93.7733 313.571 82.6571 314.269 82.6571 314.269C81.0472 311.864 78.8634 309.898 76.303 308.549L61.1179 314.602C60.9731 315.093 60.8544 315.591 60.7621 316.094C58.6501 328.067 73.5341 332.515 73.5341 332.515C70.5327 343.982 60.7621 348.48 53.4272 350.245L54.0476 355.943H95.0369L94.2705 351.331Z" fill="#EAA58B"/>
<path d="M192.447 442.154C228.026 431.663 230.307 347.732 230.307 347.732L211.747 323.848C211.747 323.848 215.254 306.679 211.605 303.486C207.199 299.631 201.647 311.696 195.64 326.749C189.327 342.564 177.536 389.077 176.623 392.27C176.623 392.27 167.774 388.11 157.287 383.275L155.8 388.165L142.271 433.775C157.105 439.846 178.129 446.378 192.447 442.154Z" fill="#EAA58B"/>
<path d="M73.5343 332.515C73.5343 332.515 58.6503 328.067 60.7623 316.094C60.8546 315.591 60.9733 315.093 61.118 314.602L50.0565 318.995C50.0565 319.309 50.1067 319.606 50.1295 319.907L53.4274 350.245C60.7759 348.48 70.5329 343.982 73.5343 332.515Z" fill="#A15842"/>
<path d="M82.6571 314.269C82.6571 314.269 93.7734 313.571 103.955 302.117C107.35 302.081 110.735 301.732 114.067 301.077C113.502 298.797 112.84 296.493 112.056 294.29L76.303 308.549C78.8634 309.898 81.0472 311.864 82.6571 314.269Z" fill="#A15842"/>
<path d="M61.1178 314.602L76.3029 308.549C70.0309 305.365 63.1476 307.687 61.1178 314.602Z" fill="#30242A"/>
<path d="M76.3031 308.549L112.056 294.29C110.811 290.782 109.26 287.539 107.289 285.076C99.6532 275.529 80.9056 268.6 64.3566 280.692C48.4235 292.338 49.3951 310.843 50.0565 319.008L61.118 314.597C63.1478 307.687 70.0311 305.365 76.3031 308.549Z" fill="#30242A"/>
<path d="M118.925 376.013L117.84 366.625C105.277 362.963 96.2 362.785 96.2 362.785L95.0596 355.943H54.0476L54.6908 361.872C50.6267 361.86 46.5696 362.207 42.5664 362.908L48.3047 376.013H118.925Z" fill="#4756DF"/>
<path d="M60.2422 403.382H122.096L120.513 389.697H54.2667L60.2422 403.382Z" fill="#4756DF"/>
<path d="M66.2224 417.066L72.1979 430.75H125.166L124.623 425.569L124.668 425.591L123.679 417.066H66.2224Z" fill="#4756DF"/>
<path d="M82.2009 451.569C82.2009 451.569 111.928 453.549 127.815 456.13L126.593 444.435H78.976L82.2009 451.569Z" fill="#4756DF"/>
<path d="M120.513 389.697L118.925 376.013H48.2913L54.2668 389.697H120.513Z" fill="#FFB7D5"/>
<path d="M60.2422 403.382L66.2222 417.066H123.678L122.096 403.382H60.2422Z" fill="#FFB7D5"/>
<path d="M73.5342 432.411L78.9761 444.435H126.593L125.165 430.75H72.7588L73.5342 432.411Z" fill="#FFB7D5"/>
<path d="M157.255 383.257C152.073 380.866 146.495 378.294 141.39 376.013C136.916 373.997 132.801 372.172 129.64 370.831C125.794 369.196 121.853 367.792 117.84 366.625L118.925 376.013L120.513 389.697L122.095 403.382L123.678 417.066L124.668 425.591C125.124 425.829 129.143 427.995 135.232 430.75C137.258 431.663 139.511 432.648 141.933 433.642L142.262 433.775L155.8 388.16L157.287 383.27L157.255 383.257Z" fill="#4756DF"/>
<path d="M78.976 444.435L73.5342 432.411L72.7587 430.75H72.1977L73.3928 433.487L28.9414 449.653C36.4313 464.569 44.9065 477.369 51.1831 483.499C73.078 504.938 130.416 491.582 130.416 491.582C130.416 491.582 136.938 496.727 145.605 498.552C161.114 529.114 169.644 518.495 169.644 518.495C169.644 518.495 175.118 524.424 179.223 518.038C187.434 518.495 186.978 513.477 179.679 496.143C187.89 506.179 196.064 506.338 196.237 503.57C196.694 496.271 176.167 472.095 157.328 464.213C145.997 459.474 127.816 456.13 127.816 456.13C111.928 453.571 82.201 451.569 82.201 451.569L78.976 444.435Z" fill="#EAA58B"/>
<path d="M42.5664 362.908C34.1049 364.358 23.2532 367.802 16.9858 376.013C14.1987 379.662 12.3149 384.224 11.9682 389.989C10.9327 406.598 19.0704 429.966 28.9551 449.653L73.3928 433.487L42.5664 362.908Z" fill="#4756DF"/>
<path d="M86.6256 356.563L87.5379 364.609" stroke="#30242A" stroke-width="4" stroke-linecap="round" stroke-linejoin="round"/>
<path d="M78.8711 356.563L79.7834 364.609" stroke="#30242A" stroke-width="4" stroke-linecap="round" stroke-linejoin="round"/>
<path d="M94.2981 352.293C91.3185 352.071 88.4062 351.298 85.7089 350.013" stroke="#A15842" stroke-width="4" stroke-miterlimit="10" stroke-linecap="round"/>
<path d="M180.664 495.915C178.908 492.02 176.897 487.796 175.086 484.594" stroke="#A15842" stroke-width="4" stroke-miterlimit="10" stroke-linecap="round"/>
<path d="M166.519 489.137C172.217 499.145 176.618 510.412 179.291 518.016" stroke="#A15842" stroke-width="4" stroke-miterlimit="10" stroke-linecap="round"/>
<path d="M138.915 430.128C143.02 437.659 147.686 446.745 151.053 453.514" stroke="#A15842" stroke-width="4" stroke-miterlimit="10" stroke-linecap="round"/>
<path d="M125.216 425.4L123.569 408.399" stroke="#30242A" stroke-width="4" stroke-linecap="round" stroke-linejoin="round"/>
<path d="M175.592 392.088L172.518 404.13" stroke="#A15842" stroke-width="4" stroke-miterlimit="10" stroke-linecap="round"/>
<path d="M54.5039 360.96H60.1647" stroke="#30242A" stroke-width="4" stroke-linecap="round" stroke-linejoin="round"/>
<path d="M97.1716 362.83L98.0292 367.967" stroke="#30242A" stroke-width="4" stroke-linecap="round" stroke-linejoin="round"/>
<path d="M106.97 283.995L49.4954 305.89" stroke="#4756DF" stroke-width="4" stroke-miterlimit="10" stroke-linecap="round"/>
<path d="M81.4255 450.488L68.9728 449.744" stroke="#A15842" stroke-width="4" stroke-miterlimit="10" stroke-linecap="round"/>
<path d="M81.8818 450.944L64.7262 412.961" stroke="#30242A" stroke-width="4" stroke-linecap="round" stroke-linejoin="round"/>
<path d="M213.311 319.861C212.262 323.999 210.793 329.44 209.324 333.591C209.324 333.591 217.079 347.276 208.868 363.241" stroke="#A15842" stroke-width="4" stroke-miterlimit="10" stroke-linecap="round"/>
<path d="M248.406 466.476H228.614C228.478 466.476 228.349 466.422 228.253 466.326C228.157 466.23 228.103 466.1 228.103 465.965V451.459C228.103 451.324 228.157 451.194 228.253 451.098C228.349 451.002 228.478 450.948 228.614 450.948H248.406C250.463 450.948 252.435 451.765 253.889 453.22C255.344 454.674 256.161 456.646 256.161 458.703C256.163 459.723 255.964 460.733 255.576 461.676C255.187 462.619 254.616 463.476 253.896 464.198C253.176 464.92 252.32 465.493 251.378 465.884C250.436 466.274 249.426 466.476 248.406 466.476V466.476Z" stroke="#8342A1" stroke-width="8" stroke-miterlimit="10"/>
<path d="M222.702 448.586C206.368 448.586 198.814 435.567 198.814 435.567L209.798 483.339H235.607L246.586 435.567C244.037 439.586 240.507 442.889 236.329 445.167C232.15 447.444 227.461 448.621 222.702 448.586Z" fill="#682C92"/>
<path d="M222.702 448.586C227.461 448.621 232.15 447.444 236.329 445.167C240.507 442.889 244.037 439.586 246.586 435.567H198.814C198.814 435.567 206.368 448.586 222.702 448.586Z" fill="#8342A1"/>
<path d="M76.5858 322.644L69.7437 317.626" stroke="#A15842" stroke-width="4" stroke-miterlimit="10" stroke-linecap="round"/>
<path d="M108.826 317.015C109.872 317.015 110.719 316.168 110.719 315.122C110.719 314.077 109.872 313.229 108.826 313.229C107.781 313.229 106.933 314.077 106.933 315.122C106.933 316.168 107.781 317.015 108.826 317.015Z" fill="#30242A"/>
<path d="M37.6035 323.219L124.522 290.262" stroke="#30242A" stroke-width="4" stroke-linecap="round" stroke-linejoin="round"/>
<path d="M107.006 328.013C107.462 328.925 110.003 331.023 112.457 329.596" stroke="#A15842" stroke-width="4" stroke-miterlimit="10" stroke-linecap="round"/>
<path d="M228.838 363.724C227.734 362.611 226.886 360.732 227.114 357.767C227.114 357.767 223.009 360.048 220.272 357.767C216.677 354.77 217.991 350.469 217.991 350.469C217.991 350.469 213.886 351.837 212.061 348.644C210.081 345.182 212.517 340.434 212.517 340.434C212.517 340.434 209.238 340.89 208.412 337.697C207.363 333.655 209.557 329.979 211.865 327.319" stroke="#A15842" stroke-width="8" stroke-miterlimit="10" stroke-linecap="round"/>
<path d="M157.27 278.286L221.979 253.706C226.397 252.027 228.618 247.085 226.94 242.667L209.158 195.855C207.479 191.437 202.537 189.216 198.119 190.894L133.41 215.475C128.992 217.153 126.771 222.095 128.45 226.513L146.232 273.325C147.91 277.743 152.852 279.964 157.27 278.286Z" fill="#30242A"/>
<path d="M233.621 391.231C234.336 393.115 236.444 394.062 238.328 393.346C240.212 392.631 241.159 390.523 240.443 388.639L193.258 264.424C192.543 262.54 190.435 261.593 188.551 262.309C186.667 263.024 185.72 265.132 186.436 267.016L233.621 391.231Z" fill="#30242A"/>
<path d="M185.345 220.066C183.248 219.167 180.88 219.136 178.761 219.981C176.642 220.826 174.944 222.478 174.041 224.573L173.047 226.89L170.73 225.891C168.641 225.025 166.295 225.016 164.199 225.866C162.104 226.716 160.428 228.358 159.533 230.435C158.638 232.511 158.598 234.857 159.419 236.964C160.241 239.071 161.859 240.769 163.924 241.692L166.241 242.691L182.038 249.497L188.848 233.696L189.842 231.383C190.292 230.345 190.532 229.228 190.549 228.097C190.566 226.966 190.36 225.842 189.942 224.791C189.524 223.74 188.903 222.781 188.114 221.97C187.325 221.16 186.384 220.512 185.345 220.066Z" fill="#FFB7D5"/>
<path d="M224.509 319.049C228.756 321.599 227.844 326.539 227.844 326.539C227.844 326.539 236.387 325.367 236.136 334.102C236.136 334.102 242.947 337.231 239.822 344.042C239.822 344.042 244.507 345.264 242.167 352.75C239.886 360.048 235.22 364.65 232.131 365.065C230.498 365.284 226.658 363.697 227.114 357.767C227.114 357.767 223.009 360.048 220.272 357.767C216.677 354.77 217.991 350.469 217.991 350.469C217.991 350.469 213.886 351.837 212.061 348.644C210.081 345.182 212.517 340.434 212.517 340.434C212.517 340.434 209.238 340.89 208.412 337.697C206.66 330.959 213.927 325.239 215.71 323.556L214.342 319.907C214.342 319.907 220.272 316.504 224.509 319.049Z" fill="#EAA58B"/>
<path d="M210.926 342.08C216.103 339.033 223.948 333.414 228.355 326.69" stroke="#A15842" stroke-width="4" stroke-miterlimit="10" stroke-linecap="round"/>
<path d="M216.937 351.577C224.457 347.22 231.079 341.472 236.451 334.641" stroke="#A15842" stroke-width="4" stroke-miterlimit="10" stroke-linecap="round"/>
<path d="M227.392 358.346C231.041 355.61 236.059 350.592 240.292 344.822" stroke="#A15842" stroke-width="4" stroke-miterlimit="10" stroke-linecap="round"/>
<path d="M545.656 14.8151C551.338 14.8151 556.788 17.0777 560.806 21.1051C564.824 25.1325 567.081 30.5949 567.081 36.2905V239.968C567.081 245.663 564.824 251.126 560.806 255.153C556.788 259.181 551.338 261.443 545.656 261.443H282.014C276.332 261.443 270.882 259.181 266.864 255.153C262.846 251.126 260.589 245.663 260.589 239.968V36.2905C260.589 30.5949 262.846 25.1325 266.864 21.1051C270.882 17.0777 276.332 14.8151 282.014 14.8151H545.656ZM545.656 12.8921H282.014C275.825 12.8984 269.891 15.3656 265.514 19.7523C261.138 24.139 258.676 30.0868 258.67 36.2905V239.968C258.676 246.171 261.138 252.119 265.514 256.506C269.891 260.893 275.825 263.36 282.014 263.366H545.656C551.845 263.36 557.779 260.893 562.156 256.506C566.532 252.119 568.994 246.171 569 239.968V36.2905C568.994 30.0868 566.532 24.139 562.156 19.7523C557.779 15.3656 551.845 12.8984 545.656 12.8921Z" fill="white"/>
<path d="M545.722 14.7338H281.948C270.109 14.7338 260.512 24.355 260.512 36.2233V240.035C260.512 251.903 270.109 261.524 281.948 261.524H545.722C557.561 261.524 567.158 251.903 567.158 240.035V36.2233C567.158 24.355 557.561 14.7338 545.722 14.7338Z" fill="#F5EBDD"/>
<path d="M260.512 61.6977H568.079" stroke="white" stroke-width="4" stroke-miterlimit="10"/>
<path d="M283.533 46.0431C288.11 46.0431 291.821 42.3325 291.821 37.7553C291.821 33.1781 288.11 29.4676 283.533 29.4676C278.956 29.4676 275.245 33.1781 275.245 37.7553C275.245 42.3325 278.956 46.0431 283.533 46.0431Z" fill="white"/>
<path d="M307.475 46.0431C312.053 46.0431 315.763 42.3325 315.763 37.7553C315.763 33.1781 312.053 29.4676 307.475 29.4676C302.898 29.4676 299.188 33.1781 299.188 37.7553C299.188 42.3325 302.898 46.0431 307.475 46.0431Z" fill="white"/>
<path d="M332.339 46.0431C336.407 46.0431 339.706 42.3325 339.706 37.7553C339.706 33.1781 336.407 29.4676 332.339 29.4676C328.27 29.4676 324.972 33.1781 324.972 37.7553C324.972 42.3325 328.27 46.0431 332.339 46.0431Z" fill="white"/>
<path d="M470.008 57.0934C454.496 57.0934 441.921 44.3126 441.921 28.5467C441.921 12.7808 454.496 0 470.008 0C485.519 0 498.094 12.7808 498.094 28.5467C498.094 44.3126 485.519 57.0934 470.008 57.0934Z" fill="#30242A"/>
<path d="M450.987 47.871C452.734 48.6812 438.066 13.5058 430.589 19.0001C423.543 24.1843 442.15 43.7502 450.987 47.871Z" fill="#3EC1F3"/>
<path d="M452.109 49.5384C453.649 51.447 489.728 38.3748 484.726 30.8281C479.942 23.5692 450.569 47.6299 452.109 49.5384Z" fill="#3EC1F3"/>
<path d="M399.105 67.2514C404.64 68.1635 412.748 66.302 412.748 66.302C423.844 78.5078 435.629 81.2189 435.629 81.2189C443.251 73.0983 457.118 73.0983 459.193 84.6108C461.497 97.3726 445.333 100.889 445.333 100.889C445.333 100.889 443.041 116.843 449.278 124.983C450.153 126.119 450.957 127.119 451.761 128H420.843L421.762 122.596C421.762 122.596 412.059 125.988 403.74 121.241C395.422 116.493 393.34 107.673 396.117 94.1056C397.758 86.0725 397.701 76.1341 399.105 67.2514Z" fill="#EAA58B"/>
<path d="M419.82 90.2444C418.295 90.2444 417.058 89.0075 417.058 87.4818C417.058 85.956 418.295 84.7192 419.82 84.7192C421.346 84.7192 422.583 85.956 422.583 87.4818C422.583 89.0075 421.346 90.2444 419.82 90.2444Z" fill="#30242A"/>
<path d="M409.801 239.523C423.038 247.054 429.95 261.524 429.95 261.524H383.907L397.601 233.899C403.056 236.27 408.172 238.58 409.801 239.523Z" fill="#FF7235"/>
<path d="M475.735 135.256C496.152 137.522 503.749 145.175 518.613 162.985C522.283 167.384 527.961 174.877 531.513 179.556L531.401 179.65C531.401 179.65 557.258 211.667 556.068 236.011L519.803 246.123L495.049 213.913L488.069 235.388C488.069 235.388 503.761 244.673 512.48 261.524H431.113C431.113 261.524 424.133 247.019 410.765 239.471C409.107 238.525 403.953 236.222 398.444 233.833L400.313 230.099L394.511 212.177L381.698 226.664C381.698 226.664 390.423 230.317 398.437 233.789L384.608 261.481H335.779C308.463 243.491 329.391 210.995 338.103 199.383C344.105 191.399 371.82 151.211 390.996 140.769C403.785 133.806 420.749 134.776 420.749 134.776L421.293 128H452.153C456.291 132.617 460.385 133.551 475.735 135.256Z" fill="#FFB7D5"/>
<path d="M381.144 225.611L370.094 222.848" stroke="#A15842" stroke-width="4" stroke-miterlimit="10" stroke-linecap="round"/>
<path d="M475.721 230.868C475.559 219.57 473.678 190.948 459.426 176.375C443.704 160.341 408.306 163.727 397.268 178.102C386.23 192.478 393.78 212.638 393.78 212.638L399.006 230.467L383.907 261.524H519.273L492.551 237.368L475.721 230.868Z" fill="#657EFE"/>
<path d="M475.993 230.215H399.562" stroke="#F5EBDD" stroke-width="4" stroke-miterlimit="10" stroke-linecap="round"/>
<path d="M442.842 206.273H413.374" stroke="#F5EBDD" stroke-width="4" stroke-miterlimit="10" stroke-linecap="round"/>
<path d="M388.93 229.294L374.698 261.524H402.687C403.636 259.683 416.237 261.524 415.663 258.837C420.221 262.06 427.616 261.524 427.048 258.837C434.443 262.06 436.719 259.913 437.287 258.837C437.854 257.76 430.459 248.638 413.961 240.005C404.376 235.044 388.93 229.294 388.93 229.294Z" fill="#EAA58B"/>
<path d="M429.95 264.287C429.95 264.287 421.309 255.488 402.324 244.949" stroke="#A15842" stroke-width="4" stroke-miterlimit="10" stroke-linecap="round"/>
<path d="M395.878 251.395C402.599 255.041 409.057 259.039 415.216 263.366" stroke="#A15842" stroke-width="4" stroke-miterlimit="10" stroke-linecap="round"/>
<path d="M390.353 257.841C401.403 261.524 401.403 261.524 401.403 261.524" stroke="#A15842" stroke-width="4" stroke-miterlimit="10" stroke-linecap="round"/>
<path d="M475.627 134.879L460.349 129.221C460.312 129.208 460.274 129.202 460.236 129.203C460.197 129.205 460.159 129.214 460.124 129.23C460.089 129.246 460.058 129.269 460.032 129.297C460.005 129.325 459.985 129.358 459.972 129.394L441.897 178.203C441.12 180.303 441.208 182.626 442.143 184.661C443.078 186.695 444.783 188.275 446.883 189.053C448.983 189.83 451.305 189.742 453.34 188.807C455.374 187.872 456.954 186.167 457.732 184.067L475.806 135.258C475.82 135.221 475.826 135.182 475.824 135.143C475.823 135.104 475.813 135.066 475.797 135.031C475.78 134.996 475.756 134.964 475.727 134.938C475.698 134.912 475.664 134.892 475.627 134.879Z" fill="#A15842"/>
<path d="M407.653 190.563C406.539 190.69 405.411 190.598 404.333 190.29C403.255 189.983 402.248 189.466 401.371 188.771C400.493 188.075 399.762 187.214 399.218 186.237C398.675 185.259 398.331 184.184 398.205 183.074L393.116 138.319C398.474 136.242 404.103 134.938 409.832 134.446L415.16 181.147C415.289 182.257 415.196 183.381 414.888 184.454C414.58 185.528 414.062 186.531 413.365 187.406C412.668 188.28 411.804 189.009 410.824 189.551C409.844 190.092 408.766 190.436 407.653 190.563Z" fill="#A15842"/>
<path d="M449.748 185.093C446.951 185.093 444.684 183.032 444.684 180.489C444.684 177.946 446.951 175.884 449.748 175.884C452.546 175.884 454.813 177.946 454.813 180.489C454.813 183.032 452.546 185.093 449.748 185.093Z" fill="#30242A"/>
<path d="M406.928 186.935C404.386 186.935 402.324 184.873 402.324 182.33C402.324 179.788 404.386 177.726 406.928 177.726C409.471 177.726 411.533 179.788 411.533 182.33C411.533 184.873 409.471 186.935 406.928 186.935Z" fill="#30242A"/>
<path d="M502.037 137.057L472.57 128.476H452.214C451.257 127.993 449.805 126.35 448.96 125.208C442.938 117.092 445.151 101.129 445.151 101.129C445.151 101.129 460.758 97.614 458.533 84.8597C456.53 73.3415 443.759 73.4691 436.418 81.5974C436.418 81.5974 423.016 78.6977 413.443 66.6155C413.443 66.6155 404.906 68.506 399.562 67.582C400.499 61.4702 403.058 55.7927 406.331 51.6474C414.344 41.4777 436.448 34.7042 453.848 47.5833C471.249 60.4624 469.911 81.4698 469.258 89.6043C469.258 89.6043 487.996 83.505 501.378 97.7201C505.251 101.791 508.071 106.767 509.59 112.206C511.108 117.646 511.277 123.382 510.081 128.903C510.081 128.903 534.736 128.198 539.525 151.272C541.991 163.09 539.33 171.489 534.065 176.805L530.095 170.45L502.037 137.057Z" fill="#30242A"/>
<path d="M475.89 135.609C460.526 133.919 456.191 132.575 452.051 128H473.514L503.414 136.725L531.81 169.726L534.928 176.003C533.913 177.105 532.522 178.604 531.559 179.568C528.03 174.931 522.042 167.664 518.192 162.845C502.852 146.638 496.324 137.853 475.89 135.609Z" fill="#30242A"/>
<path d="M422.583 123.395C425.104 122.591 427.564 121.669 429.95 120.633" stroke="#A15842" stroke-width="4" stroke-linecap="round" stroke-linejoin="round"/>
<path d="M511.907 128.921C510.995 133.039 509.762 137.046 508.223 140.892" stroke="black" stroke-width="4" stroke-linecap="round" stroke-linejoin="round"/>
<path d="M470.468 90.2444L468.626 100.374" stroke="black" stroke-width="4" stroke-linecap="round" stroke-linejoin="round"/>
<path d="M492.569 214.561L479.677 196.143" stroke="#A15842" stroke-width="4" stroke-miterlimit="10" stroke-linecap="round"/>
<path d="M445.144 108.662C440.821 108.662 437.317 105.569 437.317 101.755C437.317 97.9408 440.821 94.8487 445.144 94.8487C449.467 94.8487 452.971 97.9408 452.971 101.755C452.971 105.569 449.467 108.662 445.144 108.662Z" fill="#F5EBDD"/>
<path d="M443.763 90.2444L448.367 86.5609" stroke="#A15842" stroke-width="4" stroke-linecap="round" stroke-linejoin="round"/>
<path d="M408.77 104.589C409.802 105.098 413.658 105.499 415.216 103.136" stroke="#A15842" stroke-width="4" stroke-linecap="round" stroke-linejoin="round"/>
<path d="M404.626 87.4818C403.355 87.4818 402.324 86.4511 402.324 85.1796C402.324 83.9082 403.355 82.8775 404.626 82.8775C405.898 82.8775 406.928 83.9082 406.928 85.1796C406.928 86.4511 405.898 87.4818 404.626 87.4818Z" fill="#30242A"/>
<path d="M409.691 92.0861C409.691 92.0861 408.519 95.7695 408.82 96.5042C409.019 96.9734 409.322 97.3582 409.691 97.6113" stroke="#A15842" stroke-width="4" stroke-linecap="round" stroke-linejoin="round"/>
<path d="M515.59 224.69C515.59 224.69 487.926 223.21 475.993 222.848" stroke="#A15842" stroke-width="4" stroke-miterlimit="10" stroke-linecap="round"/>
<path d="M425.724 227.501C431.041 225.05 444.647 222.848 457.834 222.848C460.343 222.848 463.042 222.892 465.864 222.973V260.68C459.334 258.621 453.955 256.676 450.383 255.416C450.383 255.416 424.131 275.76 419.453 266.455C419.453 266.455 412.604 269.261 410.845 262.395C410.845 262.395 402.816 262.395 405.681 256.582C407.612 252.616 415.997 243.785 415.997 243.785C415.997 243.785 406.038 249.878 401.089 246.111C396.484 242.637 419.422 230.407 425.724 227.501Z" fill="#EAA58B"/>
<path d="M517.108 226.209L555.393 227.955C558.924 246.559 549.078 265.75 532.423 268.655C510.515 272.471 483.92 266.087 465.864 260.55V222.848C487.987 223.484 517.108 226.209 517.108 226.209Z" fill="#FFB7D5"/>
<path d="M414.295 243.107C419.057 239.311 425.564 234.207 429.95 231.136" stroke="#A15842" stroke-width="4" stroke-miterlimit="10" stroke-linecap="round"/>
<path d="M436.396 238.503C424.919 246.219 414.594 256.403 409.691 261.524" stroke="#A15842" stroke-width="4" stroke-miterlimit="10" stroke-linecap="round"/>
<path d="M442.842 245.87C434.884 251.849 425.77 260.884 419.821 267.05" stroke="#A15842" stroke-width="4" stroke-miterlimit="10" stroke-linecap="round"/>
<path d="M293.663 246.791C304.343 246.791 313.001 238.133 313.001 227.453C313.001 216.773 304.343 208.115 293.663 208.115C282.982 208.115 274.324 216.773 274.324 227.453C274.324 238.133 282.982 246.791 293.663 246.791Z" fill="white"/>
<path d="M299.188 221.871C299.188 218.851 296.714 216.402 293.663 216.402C290.611 216.402 288.137 218.851 288.137 221.871V228.43C288.137 231.45 290.611 233.899 293.663 233.899C296.714 233.899 299.188 231.45 299.188 228.43V221.871Z" fill="#4856DF"/>
<path d="M293.663 232.057V237.582" stroke="#4856DF" stroke-width="4" stroke-miterlimit="10" stroke-linecap="round"/>
<path d="M290.9 237.582H296.425" stroke="#4856DF" stroke-width="4" stroke-miterlimit="10" stroke-linecap="round"/>
</svg>
